#!OML:ASF X:\für Bonn\!DataBase\2005_08_12_Daniel\c3d\Daniel.ASF
:FULLY-SPECIFIED
:DEGREES
160
root -3.05271 16.8216 -2.75533 306.168 -82.4019 -317.319
lowerback 23.95 -2.3865 -3.3325
upperback 0.038511 -4.58001 -2.72245
thorax -13.4071 -2.03505 0.417472
lowerneck 2.83366 1.74795 -4.96422
upperneck 5.02752 2.09192 2.29367
head 1.00543 0.949177 1.5512
rclavicle 3.93252e-014 2.5842e-014
rhumerus 59.0451 -12.2813 -117.063
rradius 6.91065
rwrist 90.3757
rhand -16.371 12.8196
rfingers 7.12502
rthumb 9.84223 -16.9304
lclavicle 3.93252e-014 2.5842e-014
lhumerus 56.3626 7.94128 101.81
lradius 11.2442
lwrist -74.0452
lhand -14.2605 3.0844
lfingers 7.12502
lthumb 11.8779 32.7275
rfemur -2.60985 1.75618 10.115
rtibia 38.2341
rfoot -32.4754 0.174158
rtoes -16.5387
lfemur -11.1016 -11.309 -23.1499
ltibia 42.5999
lfoot -31.3049 -0.306099
ltoes -1.56888
161
root -3.06242 16.8534 -2.76746 305.956 -82.343 -316.905
lowerback 23.378 -2.38046 -3.3631
upperback 0.0264351 -4.54923 -2.73769
thorax -13.0985 -2.02837 0.380946
lowerneck 2.91469 1.76236 -5.15942
upperneck 5.07448 2.0978 2.38901
head 1.00401 0.947756 1.61571
rclavicle -3.19018e-014 -1.35174e-014
rhumerus 58.9049 -12.1972 -116.879
rradius 6.99845
rwrist 89.9037
rhand -16.4536 12.8659
rfingers 7.12502
rthumb 9.76256 -16.8878
lclavicle -3.19018e-014 -1.35174e-014
lhumerus 56.3307 7.89543 101.785
lradius 11.2146
lwrist -73.8658
lhand -14.596 2.98389
lfingers 7.12502
lthumb 11.5544 32.6454
rfemur -2.31522 2.36985 10.2994
rtibia 37.4293
rfoot -32.5888 -0.522168
rtoes -16.2358
lfemur -10.8966 -11.293 -23.1428
ltibia 41.9676
lfoot -31.3337 -0.376034
ltoes -1.31902
162
root -3.0729 16.8811 -2.7798 305.783 -82.3076 -316.556
lowerback 22.8295 -2.3731 -3.36485
upperback 0.0326983 -4.51259 -2.7731
thorax -12.7857 -2.02211 0.304702
lowerneck 2.94457 1.76425 -5.20201
upperneck 5.15765 2.09498 2.40163
head 1.02482 0.943696 1.62779
rclavicle -2.69819e-014 -2.04748e-014
rhumerus 58.7755 -12.1379 -116.74
rradius 7.09384
rwrist 89.3448
rhand -16.5555 12.9118
rfingers 7.12502
rthumb 9.66426 -16.8465
lclavicle -2.69819e-014 -2.04748e-014
lhumerus 56.3508 7.77171 101.672
lradius 11.1181
lwrist -73.624
lhand -14.8819 2.96167
lfingers 7.12502
lthumb 11.2787 32.6384
rfemur -2.02552 3.01409 10.5148
rtibia 36.6991
rfoot -32.7167 -1.1758
rtoes -15.8728
lfemur -10.7022 -11.2671 -23.1177
ltibia 41.3944
lfoot -31.3271 -0.407196
ltoes -1.10176
163
root -3.08246 16.9054 -2.78964 305.738 -82.2787 -316.356
lowerback 22.324 -2.37756 -3.31986
upperback 0.0371651 -4.48046 -2.80071
thorax -12.5018 -2.01927 0.214792
lowerneck 2.94443 1.7634 -5.29812
upperneck 5.26114 2.08813 2.43872
head 1.05675 0.936739 1.65787
rclavicle -5.39856e-014 -4.53229e-014
rhumerus 58.6481 -12.0828 -116.574
rradius 7.18076
rwrist 88.784
rhand -16.6147 12.965
rfingers 7.12502
rthumb 9.60715 -16.796
lclavicle -5.39856e-014 -4.53229e-014
lhumerus 56.3888 7.76311 101.736
lradius 11.0188
lwrist -73.6351
lhand -15.1763 2.89213
lfingers 7.12502
lthumb 10.9947 32.5842
rfemur -1.74552 3.61179 10.725
rtibia 36.045
rfoot -32.879 -1.7619
rtoes -15.6724
lfemur -10.5176 -11.3179 -23.1002
ltibia 40.8825
lfoot -31.3717 -0.354232
ltoes -0.937976
164
root -3.09331 16.9268 -2.79804 305.711 -82.2449 -316.2
lowerback 21.8549 -2.38953 -3.24585
upperback 0.0388678 -4.45584 -2.84436
thorax -12.245 -2.02129 0.0951452
lowerneck 2.99098 1.76067 -5.3355
upperneck 5.355 2.07887 2.41586
head 1.07876 0.928651 1.65751
rclavicle 6.68724e-015 -3.85642e-014
rhumerus 58.5411 -12.013 -116.442
rradius 7.23693
rwrist 88.2555
rhand -16.6595 12.9708
rfingers 7.12502
rthumb 9.56384 -16.7921
lclavicle 6.68724e-015 -3.85642e-014
lhumerus 56.3777 7.60051 101.506
lradius 10.908
lwrist -73.2549
lhand -15.3759 2.82304
lfingers 7.12502
lthumb 10.8022 32.5253
rfemur -1.46274 4.20254 10.9239
rtibia 35.4485
rfoot -33.0246 -2.32032
rtoes -15.467
lfemur -10.3172 -11.4351 -23.1048
ltibia 40.4243
lfoot -31.4179 -0.308156
ltoes -0.607252
165
root -3.10345 16.9448 -2.80593 305.802 -82.2039 -316.193
lowerback 21.4372 -2.40609 -3.16808
upperback 0.0601811 -4.43771 -2.87665
thorax -11.9937 -2.02571 -0.00947207
lowerneck 2.94026 1.7571 -5.42773
upperneck 5.49949 2.07121 2.44396
head 1.13254 0.920807 1.68518
rclavicle 3.39487e-015 1.61016e-014
rhumerus 58.5139 -11.9143 -116.302
rradius 7.25027
rwrist 87.7262
rhand -16.6686 12.9779
rfingers 7.12502
rthumb 9.5551 -16.7854
lclavicle 3.39487e-015 1.61016e-014
lhumerus 56.4302 7.45417 101.358
lradius 10.7589
lwrist -72.933
lhand -15.5549 2.84507
lfingers 7.12502
lthumb 10.6296 32.5562
rfemur -1.17121 4.73842 11.1179
rtibia 34.91
rfoot -33.1737 -2.83473
rtoes -15.3015
lfemur -10.1302 -11.5163 -23.1014
ltibia 40.0251
lfoot -31.4567 -0.285227
ltoes -0.414722
166
root -3.11538 16.961 -2.81412 305.867 -82.2071 -316.168
lowerback 21.018 -2.41456 -3.06533
upperback 0.0929748 -4.40312 -2.90958
thorax -11.7305 -2.02398 -0.13382
lowerneck 2.83607 1.75061 -5.46262
upperneck 5.68244 2.06436 2.45247
head 1.20828 0.913976 1.69756
rclavicle -1.41696e-014 -2.82274e-014
rhumerus 58.4973 -11.8071 -116.192
rradius 7.27283
rwrist 87.2272
rhand -16.6062 12.9469
rfingers 7.12502
rthumb 9.61533 -16.8137
lclavicle -1.41696e-014 -2.82274e-014
lhumerus 56.4993 7.37267 101.33
lradius 10.6173
lwrist -72.7082
lhand -15.6933 2.76072
lfingers 7.12502
lthumb 10.4961 32.4787
rfemur -0.892637 5.30845 11.3539
rtibia 34.4174
rfoot -33.346 -3.30782
rtoes -15.1027
lfemur -9.95246 -11.5939 -23.0664
ltibia 39.6745
lfoot -31.4889 -0.209546
ltoes -0.288889
167
root -3.12633 16.9742 -2.8223 306.117 -82.1946 -316.36
lowerback 20.6841 -2.43455 -2.98607
upperback 0.112905 -4.39245 -2.92181
thorax -11.5264 -2.02906 -0.210441
lowerneck 2.65821 1.75501 -5.44687
upperneck 5.99256 2.07712 2.40275
head 1.33728 0.915094 1.68467
rclavicle -8.36449e-015 -1.53064e-014
rhumerus 58.473 -11.6844 -116.059
rradius 7.27044
rwrist 86.9112
rhand -16.5311 12.8973
rfingers 7.12502
rthumb 9.68775 -16.8599
lclavicle -8.36449e-015 -1.53064e-014
lhumerus 56.535 7.15818 101.012
lradius 10.4402
lwrist -72.114
lhand -15.7644 2.75943
lfingers 7.12502
lthumb 10.4274 32.4809
rfemur -0.601218 5.89068 11.6039
rtibia 33.9676
rfoot -33.5453 -3.7759
rtoes -14.8532
lfemur -9.78467 -11.6438 -23.0243
ltibia 39.3766
lfoot -31.4981 -0.164476
ltoes -0.241858
168
root -3.13688 16.9853 -2.83064 306.335 -82.2002 -316.544
lowerback 20.3837 -2.43934 -2.90993
upperback 0.159811 -4.36511 -2.94022
thorax -11.3111 -2.0268 -0.29582
lowerneck 2.43088 1.74158 -5.35119
upperneck 6.29722 2.07226 2.32081
head 1.47502 0.909231 1.64814
rclavicle -2.96438e-014 -1.21259e-014
rhumerus 58.4851 -11.5795 -115.947
rradius 7.29542
rwrist 86.6224
rhand -16.4104 12.8777
rfingers 7.12502
rthumb 9.80421 -16.8741
lclavicle -2.96438e-014 -1.21259e-014
lhumerus 56.594 6.96711 100.821
lradius 10.3161
lwrist -71.6391
lhand -15.7703 2.72167
lfingers 7.12502
lthumb 10.4218 32.4434
rfemur -0.305105 6.40492 11.8536
rtibia 33.5556
rfoot -33.7261 -4.23801
rtoes -14.6341
lfemur -9.6125 -11.688 -22.9666
ltibia 39.1184
lfoot -31.4854 -0.143736
ltoes -0.154841
169
root -3.14527 16.9964 -2.8386 306.724 -82.2061 -316.889
lowerback 20.108 -2.45359 -2.84599
upperback 0.19044 -4.35227 -2.93635
thorax -11.1253 -2.0285 -0.344034
lowerneck 2.26875 1.73477 -5.23706
upperneck 6.57138 2.07303 2.22463
head 1.59219 0.906215 1.60268
rclavicle 2.41026e-015 7.35503e-015
rhumerus 58.5116 -11.4515 -115.819
rradius 7.27519
rwrist 86.4531
rhand -16.2867 12.7852
rfingers 7.12502
rthumb 9.92354 -16.9609
lclavicle 2.41026e-015 7.35503e-015
lhumerus 56.5772 6.5655 100.189
lradius 10.2408
lwrist -70.6255
lhand -15.751 2.70321
lfingers 7.12502
lthumb 10.4404 32.424
rfemur -0.048787 6.95715 12.1257
rtibia 33.1842
rfoot -33.9236 -4.71017
rtoes -14.4235
lfemur -9.48134 -11.7507 -22.8972
ltibia 38.8915
lfoot -31.4445 -0.0763335
ltoes -0.180437
170
root -3.15301 17.0047 -2.84665 307.039 -82.2039 -317.183
lowerback 19.8806 -2.46448 -2.78373
upperback 0.226869 -4.34098 -2.95189
thorax -10.962 -2.03111 -0.410073
lowerneck 2.18641 1.73133 -5.10214
upperneck 6.72633 2.07497 2.14648
head 1.65745 0.906449 1.55688
rclavicle -2.75752e-014 1.78906e-014
rhumerus 58.5297 -11.333 -115.721
rradius 7.26815
rwrist 86.3487
rhand -16.2396 12.7013
rfingers 7.12502
rthumb 9.96904 -17.0426
lclavicle -2.75752e-014 1.78906e-014
lhumerus 56.5947 6.21136 99.6911
lradius 10.1973
lwrist -69.8409
lhand -15.6495 2.706
lfingers 7.12502
lthumb 10.5383 32.4218
rfemur 0.210977 7.44568 12.367
rtibia 32.8396
rfoot -34.1254 -5.13796
rtoes -14.3419
lfemur -9.35106 -11.7725 -22.8405
ltibia 38.6935
lfoot -31.3531 -0.0305683
ltoes -0.258423
171
root -3.16083 17.0132 -2.85462 307.302 -82.2062 -317.443
lowerback 19.6872 -2.46606 -2.7403
upperback 0.266791 -4.32209 -2.95499
thorax -10.8115 -2.02823 -0.452482
lowerneck 2.18426 1.72314 -4.94739
upperneck 6.807 2.06886 2.02813
head 1.6856 0.903269 1.49257
rclavicle 2.55935e-015 9.54166e-015
rhumerus 58.5586 -11.2228 -115.598
rradius 7.23729
rwrist 86.2715
rhand -16.2007 12.5715
rfingers 7.12502
rthumb 10.0066 -17.1706
lclavicle 2.55935e-015 9.54166e-015
lhumerus 56.6052 5.86083 99.2325
lradius 10.2048
lwrist -69.0775
lhand -15.5032 2.71124
lfingers 7.12502
lthumb 10.6794 32.4198
rfemur 0.476492 7.93751 12.6125
rtibia 32.5301
rfoot -34.3733 -5.59001
rtoes -14.3102
lfemur -9.21112 -11.7861 -22.7863
ltibia 38.5155
lfoot -31.2735 0.0483609
ltoes -0.446291
172
root -3.16851 17.0202 -2.86251 307.771 -82.2252 -317.91
lowerback 19.5061 -2.48049 -2.66712
upperback 0.302344 -4.31216 -2.94197
thorax -10.6737 -2.02998 -0.49082
lowerneck 2.19888 1.72858 -4.86985
upperneck 6.88032 2.07707 1.96079
head 1.70721 0.90623 1.45805
rclavicle 1.3536e-014 1.09332e-014
rhumerus 58.574 -11.0819 -115.474
rradius 7.20254
rwrist 86.1688
rhand -16.1912 12.4589
rfingers 7.12502
rthumb 10.0157 -17.2828
lclavicle 1.3536e-014 1.09332e-014
lhumerus 56.5754 5.50286 98.6976
lradius 10.2791
lwrist -68.3475
lhand -15.3004 2.71103
lfingers 7.12502
lthumb 10.875 32.4094
rfemur 0.728799 8.39825 12.8865
rtibia 32.2417
rfoot -34.6404 -6.04027
rtoes -14.3015
lfemur -9.09482 -11.8177 -22.6934
ltibia 38.3693
lfoot -31.1752 0.0579264
ltoes -0.516782
173
root -3.17611 17.0258 -2.86987 308.056 -82.229 -318.2
lowerback 19.3438 -2.48829 -2.61329
upperback 0.346183 -4.30298 -2.95864
thorax -10.5386 -2.03225 -0.549798
lowerneck 2.28054 1.72767 -4.69341
upperneck 6.87868 2.07732 1.84563
head 1.69417 0.907868 1.389
rclavicle 1.49958e-014 1.98785e-016
rhumerus 58.5974 -10.9743 -115.38
rradius 7.14645
rwrist 86.0402
rhand -16.2658 12.3425
rfingers 7.12502
rthumb 9.94369 -17.4027
lclavicle 1.49958e-014 1.98785e-016
lhumerus 56.5382 5.23504 98.3308
lradius 10.398
lwrist -67.91
lhand -15.0865 2.67513
lfingers 7.12502
lthumb 11.0813 32.3626
rfemur 0.962421 8.84097 13.1188
rtibia 31.9884
rfoot -34.8932 -6.51589
rtoes -14.5275
lfemur -8.9945 -11.7997 -22.6305
ltibia 38.2509
lfoot -31.0546 0.102983
ltoes -0.755677
174
root -3.18345 17.0308 -2.87791 308.571 -82.2438 -318.716
lowerback 19.1858 -2.50109 -2.53776
upperback 0.395608 -4.29402 -2.96181
thorax -10.4001 -2.03513 -0.606062
lowerneck 2.35177 1.731 -4.56327
upperneck 6.87999 2.08125 1.78204
head 1.68321 0.911222 1.34496
rclavicle 3.18055e-014 2.16675e-014
rhumerus 58.6159 -10.8861 -115.266
rradius 7.10925
rwrist 85.8473
rhand -16.3193 12.279
rfingers 7.12502
rthumb 9.89215 -17.4686
lclavicle 3.18055e-014 2.16675e-014
lhumerus 56.4826 4.98401 97.9983
lradius 10.5667
lwrist -67.5929
lhand -14.8204 2.67532
lfingers 7.12502
lthumb 11.338 32.3488
rfemur 1.18003 9.28248 13.3923
rtibia 31.7671
rfoot -35.1898 -7.03198
rtoes -14.7999
lfemur -8.92227 -11.8017 -22.5318
ltibia 38.1678
lfoot -30.9302 0.130344
ltoes -0.938587
